<svg width="100" height="13.92" viewBox="0 0 582 81" fill="none" xmlns="http://www.w3.org/2000/svg">
<path d="M199.864 9.15455V12.6278C199.864 13.7482 198.91 14.6648 197.744 14.6648H178.667V72.3463C178.667 73.4671 177.712 74.3834 176.546 74.3834H170.852C169.685 74.3834 168.731 73.4671 168.731 72.3463V14.6648H149.654C148.488 14.6648 147.533 13.7482 147.533 12.6278V9.15455C147.533 8.03405 148.488 7.11737 149.654 7.11737H197.744C198.91 7.11737 199.864 8.03405 199.864 9.15455Z" fill="white"/>
<path d="M244.283 49.8364L230.847 8.02395H230.656L217.125 49.8364L214.666 57.4749L209.172 74.3834H201.983C200.541 74.3834 199.512 73.019 199.968 71.704L221.834 8.51277C222.12 7.67762 222.936 7.11737 223.848 7.11737H238.291C239.203 7.11737 240.02 7.67762 240.305 8.51277L262.002 71.704C262.458 73.019 261.429 74.3834 259.986 74.3834H252.224L246.732 57.4749L244.272 49.8364H244.283Z" fill="white"/>
<path d="M285.545 8.02395H285.354L283.201 14.6648H287.676L285.545 8.02395ZM297.41 7.11737H273.795C272.618 7.11737 271.675 8.02395 271.675 9.15455V72.3463C271.675 73.4671 272.618 74.3834 273.795 74.3834H281.611V46.2003H297.887L299.001 46.1587C302.543 46.1587 304.642 45.6186 307.484 44.8448C307.823 44.7528 308.152 44.6618 308.481 44.5495C317.304 41.8095 322.298 35.2807 322.298 25.8386C322.298 14.1149 313.031 7.11737 297.41 7.11737ZM305.045 37.7252H305.024C303.073 38.5197 300.74 38.9271 298.078 38.9271H281.611V14.6648H298.078C306.88 14.6648 312.086 19.1161 312.086 26.572C312.086 32.0314 309.594 35.8918 305.045 37.7252Z" fill="white"/>
<path d="M433.937 36.4724C448.327 36.4724 456.747 43.3783 456.747 55.0201C456.747 66.663 447.945 74.3834 432.899 74.3834H406.537C405.37 74.3834 404.417 73.4671 404.417 72.3463V9.15455C404.417 8.03405 405.37 7.11737 406.537 7.11737H432.242C444.351 7.11737 451.456 12.7501 451.456 22.3857C451.456 31.1148 444.457 36.2891 432.623 36.2891V36.4724H433.949H433.937ZM429.018 14.6546H414.352V36.2891H429.018C436.684 36.2891 441.223 32.3778 441.223 25.5636C441.223 18.7494 436.684 14.6546 429.018 14.6546ZM433.376 66.8258C441.605 66.8258 446.536 62.3744 446.536 55.01C446.536 47.6466 441.615 43.3782 433.376 43.3782H414.352V66.8258H433.376Z" fill="white"/>
<path d="M466.578 51.1792V9.31648C466.578 8.19609 467.531 7.2793 468.698 7.2793H474.297C475.464 7.2793 476.417 8.19609 476.417 9.31648V51.7294C476.417 61.9147 482.813 67.8631 493.681 67.6295C502.621 67.4364 509.726 60.3156 509.726 51.7294V9.31648C509.726 8.19609 510.679 7.2793 511.846 7.2793H516.978C518.144 7.2793 519.099 8.19609 519.099 9.31648V51.1792C519.099 66.3561 509.354 75.4521 492.79 75.4521C476.227 75.4521 466.578 66.3662 466.578 51.1792Z" fill="white"/>
<path d="M376.643 49.8364L363.207 8.02395H363.016L349.486 49.8364L347.026 57.4749L341.533 74.3834H334.343C332.902 74.3834 331.873 73.019 332.329 71.704L354.194 8.51277C354.481 7.67762 355.297 7.11737 356.209 7.11737H370.651C371.563 7.11737 372.381 7.67762 372.666 8.51277L394.363 71.704C394.819 73.019 393.79 74.3834 392.347 74.3834H384.585L379.093 57.4749L376.632 49.8364H376.643Z" fill="white"/>
<path d="M581.366 9.31648V12.7898C581.366 13.9102 580.411 14.827 579.244 14.827H560.167V72.5088C560.167 73.6284 559.213 74.5459 558.047 74.5459H552.353C551.186 74.5459 550.231 73.6284 550.231 72.5088V14.827H531.156C529.989 14.827 529.034 13.9102 529.034 12.7898V9.31648C529.034 8.19609 529.989 7.2793 531.156 7.2793H579.244C580.411 7.2793 581.366 8.19609 581.366 9.31648Z" fill="white"/>
<path d="M319.964 74.3836H312.637L299 46.1589L295.511 38.9269H298.077C300.739 38.9269 303.072 38.5195 305.023 37.7352H305.044L305.087 37.725L308.48 44.5497L321.873 71.4706C322.541 72.8249 321.523 74.3836 319.964 74.3836Z" fill="white"/>
<path d="M126.976 25.4521L107.857 7.08715C103.599 2.99814 97.9488 0.750366 91.9367 0.750366C85.9246 0.750366 80.261 2.99814 76.0164 7.08715L56.897 25.4521C48.1216 33.8814 48.1216 47.6072 56.897 56.0488L68.4483 67.144L76.0164 74.4138C80.2735 78.5029 85.9246 80.7504 91.9367 80.7504C92.2479 80.7504 92.5466 80.7504 92.8454 80.7266C98.5214 80.5118 103.824 78.2867 107.857 74.4138L126.976 56.0488C127.71 55.3555 128.371 54.6134 128.98 53.8369C135.689 45.3715 135.017 33.1879 126.976 25.4641V25.4521ZM116.221 42.4307L93.6919 64.0713C92.7209 65.0033 91.1401 65.0033 90.1691 64.0713L67.6392 42.4307C66.6684 41.4974 66.6684 39.9791 67.6392 39.0465L90.1691 17.4055C91.1401 16.4729 92.7209 16.4729 93.6919 17.4055L116.221 39.0465C117.193 39.9791 117.193 41.4974 116.221 42.4307Z" fill="white"/>
<path d="M79.2029 27.963L67.6516 39.0585C67.1661 39.5247 66.9173 40.1346 66.9173 40.7443C66.9173 41.3537 66.6808 41.964 66.1953 42.4307L43.6654 64.0713C42.6944 65.0033 41.1136 65.0033 40.1428 64.0713L17.6128 42.4307C16.6418 41.4974 16.6418 39.9911 17.6128 39.0585L40.1428 17.4175C41.1136 16.4849 42.6944 16.4849 43.6654 17.4175L54.6564 27.975C55.3162 27.0903 56.0754 26.2412 56.8971 25.4521L66.9296 15.8154L57.843 7.08715C53.5735 2.99814 47.9223 0.750366 41.9102 0.750366C35.8981 0.750366 30.2345 3.01013 25.9775 7.08715L6.85813 25.4521C-1.91731 33.8814 -1.91731 47.6072 6.85813 56.037L18.4218 67.1322L25.9775 74.3901C30.2345 78.4791 35.8857 80.7266 41.9102 80.7266C42.209 80.7266 42.5201 80.7266 42.8189 80.7029C48.4825 80.4867 53.7976 78.2629 57.843 74.3901L66.9296 65.6729L76.9499 56.037C77.6843 55.3318 78.344 54.5896 78.9539 53.8251C79.041 53.717 79.1158 53.6208 79.1904 53.514C84.9785 45.9449 84.966 35.5434 79.1904 27.9512L79.2029 27.963Z" fill="#675CF5"/>
</svg>
